<?xml version="1.0" encoding="UTF-8" standalone="no"?>
<svg
   height="20"
   viewBox="0 -960 800 800"
   width="20"
   fill="#e8eaed"
   version="1.1"
   id="svg1"
   sodipodi:docname="globe-symbolic.svg"
   inkscape:version="1.3.2 (091e20ef0f, 2023-11-25, custom)"
   xmlns:inkscape="http://www.inkscape.org/namespaces/inkscape"
   xmlns:sodipodi="http://sodipodi.sourceforge.net/DTD/sodipodi-0.dtd"
   xmlns="http://www.w3.org/2000/svg"
   xmlns:svg="http://www.w3.org/2000/svg">
  <defs
     id="defs1" />
  <sodipodi:namedview
     id="namedview1"
     pagecolor="#ffffff"
     bordercolor="#000000"
     borderopacity="0.25"
     inkscape:showpageshadow="2"
     inkscape:pageopacity="0.0"
     inkscape:pagecheckerboard="0"
     inkscape:deskcolor="#d1d1d1"
     inkscape:clip-to-page="true"
     inkscape:zoom="23.747003"
     inkscape:cx="9.9802069"
     inkscape:cy="9.2222165"
     inkscape:window-width="1920"
     inkscape:window-height="1012"
     inkscape:window-x="0"
     inkscape:window-y="32"
     inkscape:window-maximized="1"
     inkscape:current-layer="svg1" />
  <path
     d="m 400,-160 q -83,0 -156,-31.5 Q 171,-223 117,-277 63,-331 31.5,-404 0,-477 0,-560 0,-643 31.5,-716 63,-789 117,-843 q 54,-54 127,-85.5 73,-31.5 156,-31.5 83,0 156,31.5 73,31.5 127,85.5 54,54 85.5,127 31.5,73 31.5,156 0,83 -31.5,156 -31.5,73 -85.5,127 -54,54 -127,85.5 -73,31.5 -156,31.5 z m 0,-80 q 134,0 227,-93 93,-93 93,-227 0,-7 -0.5,-14.5 -0.5,-7.5 -0.5,-12.5 -5,29 -27,48 -22,19 -52,19 h -80 q -33,0 -56.5,-23.5 Q 480,-567 480,-600 v -40 H 320 v -80 q 0,-33 23.5,-56.5 Q 367,-800 400,-800 h 40 q 0,-23 12.5,-40.5 12.5,-17.5 30.5,-28.5 -20,-5 -40.5,-8 -20.5,-3 -42.5,-3 -134,0 -227,93 -93,93 -93,227 h 200 q 66,0 113,47 47,47 47,113 v 40 H 320 v 110 q 20,5 39.5,7.5 19.5,2.5 40.5,2.5 z"
     id="path1" />
  <path
     style="fill:#aaaaaa;stroke-width:0.0421106"
     d="M 9.3906588,19.953789 C 7.001975,19.837486 4.6913003,18.798356 2.9461956,17.055659 1.4165858,15.528159 0.43943613,13.58544 0.12440693,11.445523 0.0151681,10.70349 0.00403882,9.4086206 0.10077198,8.6956439 0.52955811,5.5352527 2.3907533,2.8084781 5.1707208,1.2678311 6.711682,0.41383669 8.1847058,0.03816322 10.001262,0.03587136 c 1.647482,-0.0020785 2.976412,0.30438452 4.425839,1.02063814 1.837854,0.9082003 3.318809,2.3294326 4.322428,4.148117 0.91855,1.6645297 1.30208,3.3794551 1.204579,5.3861835 -0.14871,3.060695 -1.799815,5.961093 -4.373194,7.682133 -1.880535,1.257675 -3.857325,1.794435 -6.1902552,1.680846 z M 11.30669,17.918508 c 1.693191,-0.257942 3.129011,-0.992437 4.374196,-2.237622 1.244298,-1.244298 1.985015,-2.691896 2.235643,-4.369164 0.08253,-0.552298 0.126198,-1.4229279 0.08697,-1.7339604 l -0.03156,-0.2502687 -0.07868,0.2552575 c -0.107057,0.3473436 -0.365731,0.7336716 -0.632367,0.9444346 -0.525187,0.415136 -0.753206,0.461984 -2.253257,0.462945 -0.627971,4.02e-4 -1.243838,-0.0182 -1.368594,-0.04133 -0.381105,-0.07067 -0.797538,-0.30365 -1.071343,-0.599392 C 12.131997,9.8787991 12.003973,9.4590485 12.002349,8.495809 L 12.001515,8.0010097 H 10.001262 8.0010097 L 8.0018439,7.0008835 C 8.0023025,6.4508141 8.0214574,5.868109 8.0444093,5.7059833 8.1624145,4.8724435 8.8729484,4.1619094 9.7064881,4.0439046 9.8686138,4.0209523 10.230765,4.0017978 10.511268,4.001339 l 0.510006,-8.341e-4 0.02331,-0.2571144 C 11.086665,3.279364 11.424057,2.7624424 11.91874,2.4040959 12.1232,2.2559858 12.133912,2.2639573 11.578262,2.1507314 10.118382,1.8532486 8.5124587,1.9684234 7.1700623,2.4668819 5.3166529,3.1550897 3.7065987,4.6037924 2.8213905,6.3797525 2.4891314,7.0463516 2.2783404,7.648908 2.1511099,8.2957838 2.0595014,8.761547 1.9791971,9.4708837 1.9791971,9.814308 v 0.204173 l 2.8529917,0.0137 c 2.8035946,0.01346 2.8588243,0.01533 3.1898762,0.107864 1.5582771,0.435549 2.728038,1.770984 2.924632,3.338853 0.02429,0.193718 0.04416,0.613271 0.04416,0.93234 v 0.580125 H 9.4959352 8.0010097 v 1.386811 c 0,1.284653 0.00543,1.388367 0.073694,1.407932 0.789362,0.226227 2.2289643,0.285201 3.2319863,0.132399 z"
     id="path2"
     transform="matrix(40,0,0,40,0,-960)" />
</svg>
