<?xml version="1.0" encoding="UTF-8" standalone="no"?>
<svg
   width="20"
   height="20"
   viewBox="0 0 334 334"
   version="1.1"
   id="svg1"
   sodipodi:docname="nordvpn-tray-symbolic.svg"
   inkscape:version="1.3.2 (091e20ef0f, 2023-11-25, custom)"
   inkscape:export-filename="nordvpn-tray-symbolic.svg"
   inkscape:export-xdpi="76.800003"
   inkscape:export-ydpi="76.800003"
   xmlns:inkscape="http://www.inkscape.org/namespaces/inkscape"
   xmlns:sodipodi="http://sodipodi.sourceforge.net/DTD/sodipodi-0.dtd"
   xmlns="http://www.w3.org/2000/svg"
   xmlns:svg="http://www.w3.org/2000/svg">
  <defs
     id="defs1" />
  <sodipodi:namedview
     id="namedview1"
     pagecolor="#ffffff"
     bordercolor="#000000"
     borderopacity="0.25"
     inkscape:showpageshadow="2"
     inkscape:pageopacity="0.0"
     inkscape:pagecheckerboard="0"
     inkscape:deskcolor="#d1d1d1"
     inkscape:zoom="27.2"
     inkscape:cx="9.9816176"
     inkscape:cy="10.183824"
     inkscape:window-width="1920"
     inkscape:window-height="1012"
     inkscape:window-x="0"
     inkscape:window-y="32"
     inkscape:window-maximized="1"
     inkscape:current-layer="svg1" />
  <path
     fill-rule="evenodd"
     clip-rule="evenodd"
     d="m31.8 300c-20.8-28.6-31.9-63.1-31.8-98.4 0-92.6 74.9-168 167-168 92.4 0 167 75.1 167 168 .049 35.4-11.1 69.8-31.9 98.4l-80.4-131-7.77 13.1 7.87 36.5-55.2-94.6-34.2 57.8 7.95 36.9-28.9-49.6-80.3 131z"
     fill="#dfdbd2"
     id="path1" />
  <path
     style="fill:#aaaaaa;fill-opacity:1;stroke-width:0.0367647"
     d="M 1.7396476,17.693347 C 1.1977799,16.910063 0.69926721,15.854725 0.42208121,14.904092 -0.03594483,13.333254 -0.09950099,11.580688 0.24245808,9.9509717 0.54189757,8.5238963 1.2899548,6.9541526 2.2333419,5.7732474 2.5639583,5.3593911 3.3239278,4.5914852 3.7132353,4.2778993 5.1968904,3.0828202 6.8026912,2.3890074 8.7316176,2.1096241 c 0.5396662,-0.078165 1.8795944,-0.088302 2.4264704,-0.018357 1.587874,0.203086 3.033243,0.73521 4.319751,1.5903504 0.668271,0.4441994 1.104979,0.8097901 1.694529,1.4185795 1.066624,1.1014297 1.822428,2.3550466 2.311631,3.834194 0.86572,2.617576 0.569852,5.666638 -0.779439,8.032521 -0.197548,0.346386 -0.583793,0.937657 -0.611991,0.936849 -0.01249,-3.58e-4 -1.097828,-1.754035 -2.411854,-3.897059 -1.314025,-2.143024 -2.397665,-3.896303 -2.408088,-3.896176 -0.01042,1.28e-4 -0.04502,0.04562 -0.07688,0.101103 -0.03186,0.05548 -0.135738,0.234339 -0.23084,0.397465 l -0.172912,0.296595 0.20574,0.945987 c 0.113156,0.520293 0.199788,0.96384 0.192515,0.98566 -0.0073,0.02182 -0.726005,-1.181879 -1.597182,-2.674887 C 10.721892,8.6694415 9.9946526,7.4438662 9.9769816,7.4389485 9.959311,7.4340305 9.4866893,8.2074121 8.9267118,9.1575739 L 7.908571,10.885141 8.1090809,11.812056 c 0.1102809,0.509803 0.2099794,0.976547 0.2215529,1.037209 0.011574,0.06066 -0.3546606,-0.532008 -0.813854,-1.317045 -0.459193,-0.785036 -0.8476055,-1.413712 -0.8631383,-1.397059 -0.021718,0.02329 -4.078657,6.633011 -4.6503703,7.576568 l -0.1171514,0.193347 z"
     id="path2"
     transform="scale(16.7)" />
</svg>
